{"title":"Depardon - Profils Paysans I L'approche (2001, 90') Rip Par Bour","uid":7850446,"size":1306259456,"categoryP":"video","categoryS":"movies","magnet":"?xt=urn:btih:36da4d9eadf90890c3b3481301f89777a25e2284&amp;dn=Depardon+-+Profils+Paysans+I+L%27approche+%282001%2C+90%27%29+Rip+Par+Bour&amp;tr=udp%3A%2F%2Ftracker.openbittorrent.com%3A80&amp;tr=udp%3A%2F%2Fopen.demonii.com%3A1337&amp;tr=udp%3A%2F%2Ftracker.coppersurfer.tk%3A6969&amp;tr=udp%3A%2F%2Fexodus.desync.com%3A6969","seeders":0,"leechers":1,"uploader":"Bonie75","files":-1,"time":1353593506,"description":"DepardonDepardon - Profils Paysans I L'approche (2001, 90') Rip Par Bourdieu.avi\nFormat                                   : AVI\nFormat/Info                              : Audio Video Interleave\nFile size                                : 1.22 GiB\nDuration                                 : 1h 29mn\nOverall bit rate                         : 1 936 Kbps\nWriting library                          : VirtualDub build 13870/release\n\nVideo\nID                                       : 0\nFormat                                   : MPEG-4 Visual\nCodec ID                                 : DIV3\nCodec ID/Hint                            : DivX 3 Low\nDuration                                 : 1h 29mn\nBit rate                                 : 1 863 Kbps\nWidth                                    : 720 pixels\nHeight                                   : 416 pixels\nDisplay aspect ratio                     : 1.731\nFrame rate                               : 25.000 fps\nColor space                              : YUV\nChroma subsampling                       : 4:2:0\nBit depth                                : 8 bits\nCompression mode                         : Lossy\nBits/(Pixel*Frame)                       : 0.249\nStream size                              : 1.17 GiB (96%)\n\nAudio\nID                                       : 1\nFormat                                   : WMA\nFormat version                           : Version 2\nCodec ID                                 : 161\nCodec ID/Info                            : Windows Media Audio\nDuration                                 : 1h 29mn\nBit rate                                 : 64.1 Kbps\nChannel(s)                               : 2 channels\nSampling rate                            : 44.1 KHz\nBit depth                                : 16 bits\nStream size                              : 41.2 MiB (3%)\nInterleave, duration                     : 46 ms (1.16 video frame)\nInterleave, preload duration             : 464 ms\n","torrent":{"xt":"urn:btih:36da4d9eadf90890c3b3481301f89777a25e2284","amp;dn":"Depardon+-+Profils+Paysans+I+L%27approche+%282001%2C+90%27%29+Rip+Par+Bour","amp;tr":["udp%3A%2F%2Ftracker.openbittorrent.com%3A80","udp%3A%2F%2Fopen.demonii.com%3A1337","udp%3A%2F%2Ftracker.coppersurfer.tk%3A6969","udp%3A%2F%2Fexodus.desync.com%3A6969"],"infoHash":"36da4d9eadf90890c3b3481301f89777a25e2284","infoHashBuffer":{"type":"Buffer","data":[54,218,77,158,173,249,8,144,195,179,72,19,1,248,151,119,162,94,34,132]},"announce":[],"urlList":[]}}